<mxfile host="app.diagrams.net" modified="2024-06-17T03:51:08.068Z" agent="Mozilla/5.0 (Windows NT 10.0; Win64; x64) AppleWebKit/537.36 (KHTML, like Gecko) Chrome/125.0.0.0 Safari/537.36" version="24.5.4" etag="a9Mtf9cDw51GoTDiZSjv" type="github">
  <diagram name="Page-1" id="hgtgi5XTROCxD6micar5">
    <mxGraphModel>
      <root>
        <mxCell id="0" />
        <mxCell id="1" parent="0" />
      </root>
    </mxGraphModel>
  </diagram>
</mxfile>
